<?xml version="1.0" encoding="utf-8"?>
<!-- Generator: Adobe Illustrator 18.0.0, SVG Export Plug-In . SVG Version: 6.00 Build 0)  -->
<!DOCTYPE svg PUBLIC "-//W3C//DTD SVG 1.1//EN" "http://www.w3.org/Graphics/SVG/1.1/DTD/svg11.dtd">
<svg version="1.1" id="Layer_1" xmlns="http://www.w3.org/2000/svg" xmlns:xlink="http://www.w3.org/1999/xlink" x="0px" y="0px"
	 viewBox="0 0 64 64" enable-background="new 0 0 64 64" xml:space="preserve">
<g>
	<path d="M0,11v42h64V11H0z M60,22.8c-3.9-0.8-7-3.9-7.8-7.8H60V22.8z M48.2,49H15.8C15,42.9,10.1,38,4,37.2V26.8
		C10.1,26,15,21.1,15.8,15h32.3C49,21.1,53.9,26,60,26.8v10.3C53.9,38,49,42.9,48.2,49z M11.8,15C11,18.9,7.9,22,4,22.8V15H11.8z
		 M4,41.2c3.9,0.8,7,3.9,7.8,7.8H4V41.2z M52.2,49c0.8-3.9,3.9-7,7.8-7.8V49H52.2z"/>
	<path d="M32,18c-7.7,0-14,6.3-14,14s6.3,14,14,14s14-6.3,14-14S39.7,18,32,18z M32,42c-5.5,0-10-4.5-10-10s4.5-10,10-10
		s10,4.5,10,10S37.5,42,32,42z"/>
	<path d="M32.1,30.5c-1.6-0.4-1.6-0.8-1.6-1c0-0.5,0.6-1,1.5-1c0.8,0,1.4,0.4,1.5,0.8l2.9-0.8c-0.4-1.3-1.5-2.4-3-2.9V24h-3v1.7
		c-1.7,0.6-3,2-3,3.8c0,1.4,0.7,3.2,3.9,4c1.4,0.3,2.1,0.8,2.1,1c0,0.5-0.6,1-1.5,1c-0.8,0-1.4-0.4-1.5-0.8l-2.9,0.8
		c0.4,1.3,1.5,2.4,3,2.9V40h3v-1.7c1.7-0.6,3-2,3-3.8C36.5,33.2,35.7,31.4,32.1,30.5z"/>
</g>
</svg>
